<svg style="height: 512px; width: 512px;" xmlns="http://www.w3.org/2000/svg" viewBox="0 0 512 512"><rect fill="#1d8d13" fill-opacity="1" height="512" width="512" rx="32" ry="32"></rect><g class="" style="" transform="translate(0,0)"><path d="M23 24v464h18V386.9c152.3 29.4 277.6 29.4 430 0V488h18V24h-18v16h-23v32h23v32h-23v32h23v232.6c-153.3 29.9-276.7 29.9-430 0V104h23V72H41V24H23zm41 48h32V40H64v32zm32 0v32h32V72H96zm32 0h32V40h-32v32zm32 0v32h32V72h-32zm32 0h32V40h-32v32zm32 0v32h32V72h-32zm32 0h32V40h-32v32zm32 0v32h32V72h-32zm32 0h32V40h-32v32zm32 0v32h32V72h-32zm32 0h32V40h-32v32zm32 0v32h32V72h-32zm0 32h-32v32h32v-32zm-64 0h-32v32h32v-32zm-64 0h-32v32h32v-32zm-64 0h-32v32h32v-32zm-64 0h-32v32h32v-32zm-64 0H64v32h32v-32z" fill="#fff" fill-opacity="1" transform="translate(25.6, 25.6) scale(0.9, 0.9) rotate(-360, 256, 256) skewX(0) skewY(0)"></path></g></svg>