<svg style="height: 512px; width: 512px;" xmlns="http://www.w3.org/2000/svg" viewBox="0 0 512 512"><rect fill="#1d8d13" fill-opacity="1" height="512" width="512" rx="32" ry="32"></rect><g class="" style="" transform="translate(0,0)"><path d="M367.35 80.512a208 208 0 0 0-222.64.074l54.33 69.853a120 120 0 0 1 113.893.035l54.416-69.963zm64.064 64.197l-69.853 54.33a120 120 0 0 1-.035 113.893l69.963 54.416a208 208 0 0 0-.074-222.64zm-280.94 54.357L80.513 144.65a208 208 0 0 0 .074 222.64l69.853-54.33a120 120 0 0 1 .035-113.893zM312.962 361.56a120 120 0 0 1-113.893-.035l-54.416 69.963a208 208 0 0 0 222.64-.074l-54.33-69.853z" fill="#fff" fill-opacity="1" transform="translate(25.6, 25.6) scale(0.9, 0.9) rotate(-360, 256, 256) skewX(0) skewY(0)"></path></g></svg>