<?xml version="1.0" encoding="UTF-8"?>
<!DOCTYPE svg PUBLIC "-//W3C//DTD SVG 1.1//EN" "http://www.w3.org/Graphics/SVG/1.1/DTD/svg11.dtd">
<svg xmlns="http://www.w3.org/2000/svg" version="1.1" width="374px" height="492px" style="shape-rendering:geometricPrecision; text-rendering:geometricPrecision; image-rendering:optimizeQuality; fill-rule:evenodd; clip-rule:evenodd" xmlns:xlink="http://www.w3.org/1999/xlink">
<g><path style="opacity:0.918" fill="#000000" d="M 181.5,-0.5 C 187.5,-0.5 193.5,-0.5 199.5,-0.5C 202.415,3.65347 203.082,8.15347 201.5,13C 199.833,13.6667 198.167,13.6667 196.5,13C 195.601,11.7638 194.434,10.9304 193,10.5C 184.128,10.8489 177.295,14.6823 172.5,22C 176.715,22.5953 180.881,23.4287 185,24.5C 188.667,23.5 192.333,22.5 196,21.5C 199.437,21.9426 201.104,23.9426 201,27.5C 204.101,26.0501 206.101,27.0501 207,30.5C 207.772,35.9042 207.439,41.2375 206,46.5C 202.661,49.2994 199.661,48.9661 197,45.5C 195.562,46.7185 193.895,47.3852 192,47.5C 185.524,46.766 179.024,46.266 172.5,46C 171.107,44.8289 170.273,43.3289 170,41.5C 168.286,42.9255 166.953,42.5922 166,40.5C 163.458,30.5827 161.792,20.5827 161,10.5C 167.126,5.356 173.959,1.68934 181.5,-0.5 Z M 199.5,33.5 C 202.164,36.4486 201.998,39.4486 199,42.5C 199.29,39.5865 199.457,36.5865 199.5,33.5 Z"/></g>
<g><path style="opacity:0.94" fill="#000000" d="M 373.5,372.5 C 373.5,378.5 373.5,384.5 373.5,390.5C 365.578,422.676 350.078,450.676 327,474.5C 322.986,479.417 318.152,483.25 312.5,486C 296.933,489.427 289.766,483.261 291,467.5C 290.501,471.821 290.334,476.154 290.5,480.5C 285.514,480.67 281.014,479.337 277,476.5C 274.212,453.498 278.545,431.831 290,411.5C 298.114,401.44 305.614,390.94 312.5,380C 310.833,379.333 309.167,379.333 307.5,380C 305,382.5 302.5,385 300,387.5C 295.172,397.159 289.839,406.492 284,415.5C 277.389,430.161 273.556,445.495 272.5,461.5C 272.613,465.535 272.946,469.535 273.5,473.5C 268.056,471.902 263.89,468.569 261,463.5C 258.844,452.275 259.011,441.108 261.5,430C 259.168,425.377 258.835,420.544 260.5,415.5C 259.5,415.5 258.5,415.5 257.5,415.5C 255.602,441.794 243.936,462.628 222.5,478C 202.689,488.3 182.022,490.3 160.5,484C 131.433,472.579 115.1,451.246 111.5,420C 112.145,415.832 112.312,411.665 112,407.5C 110.397,408.886 109.563,410.719 109.5,413C 110.366,417.82 110.533,422.653 110,427.5C 109.804,429.286 108.971,430.619 107.5,431.5C 104.254,425.423 100.42,419.757 96,414.5C 104.392,430.342 109.892,447.342 112.5,465.5C 112.372,469.085 110.705,471.585 107.5,473C 104.367,473.96 101.2,474.793 98,475.5C 97.0546,475.095 96.3879,474.428 96,473.5C 95.1577,469.131 94.1577,464.797 93,460.5C 93.274,467.178 93.6074,473.844 94,480.5C 93.5,482.333 92.3333,483.5 90.5,484C 87.8832,484.822 85.2165,485.322 82.5,485.5C 81.7656,474.854 79.599,464.521 76,454.5C 78.0897,464.949 79.923,475.449 81.5,486C 79.2537,488.609 76.587,490.443 73.5,491.5C 69.1667,491.5 64.8333,491.5 60.5,491.5C 57.0611,489.606 53.7278,487.44 50.5,485C 41.6293,475.798 33.1293,466.298 25,456.5C 13.6537,436.499 5.15368,415.499 -0.5,393.5C -0.5,387.167 -0.5,380.833 -0.5,374.5C 4.18442,370.801 8.51775,366.634 12.5,362C 14.8333,360.833 17.1667,359.667 19.5,358.5C 24.4675,348.842 31.8008,346.342 41.5,351C 48.6847,357.686 56.0181,364.186 63.5,370.5C 68.8147,364.716 74.3147,364.383 80,369.5C 83.9525,365.205 88.1192,361.372 92.5,358C 91.1502,351.411 92.3169,345.578 96,340.5C 92.85,336.383 89.35,332.549 85.5,329C 80.9881,328.492 77.4881,326.325 75,322.5C 72.2547,316.675 69.2547,311.008 66,305.5C 60.6618,300.345 54.9952,295.678 49,291.5C 47.5191,284.086 50.1858,278.752 57,275.5C 57.8025,271.479 58.9692,267.646 60.5,264C 58.163,259.84 56.9964,255.34 57,250.5C 56.2737,241.981 56.4403,233.481 57.5,225C 54.0458,212.747 52.3791,200.247 52.5,187.5C 42.7957,188.409 34.129,185.909 26.5,180C 20.8424,173.17 19.009,165.336 21,156.5C 23.3419,153.246 26.5085,151.412 30.5,151C 39.2581,150.344 47.9247,151.011 56.5,153C 58.646,153.479 59.646,154.812 59.5,157C 58.3131,160.543 56.9798,164.043 55.5,167.5C 55.8333,167.833 56.1667,168.167 56.5,168.5C 59.4085,162.531 63.4085,157.364 68.5,153C 66.1208,150.773 65.9541,148.273 68,145.5C 70.8333,142.667 73.6667,139.833 76.5,137C 74.5975,136.801 73.0975,135.967 72,134.5C 71.3333,131.5 71.3333,128.5 72,125.5C 78.8043,106.227 87.471,87.894 98,70.5C 102.865,65.3 108.032,60.4666 113.5,56C 121.936,52.4803 130.27,48.8137 138.5,45C 148.455,43.5019 158.455,43.1686 168.5,44C 170.155,45.4443 170.822,47.2776 170.5,49.5C 182.193,49.2787 193.86,49.612 205.5,50.5C 204.923,53.5497 206.09,55.5497 209,56.5C 208.582,51.5355 208.582,46.5355 209,41.5C 210.418,39.6368 212.251,39.1368 214.5,40C 226.343,45.0589 238.343,49.7255 250.5,54C 255.214,56.0512 259.381,58.8845 263,62.5C 268.605,71.3723 274.939,79.7056 282,87.5C 292.582,104.401 297.749,122.734 297.5,142.5C 296.675,143.386 295.675,143.719 294.5,143.5C 294.672,145.492 294.005,147.158 292.5,148.5C 298.32,154.804 303.154,161.804 307,169.5C 310.455,166.211 314.289,166.044 318.5,169C 320.124,170.117 321.124,171.617 321.5,173.5C 320.177,178.155 317.843,182.155 314.5,185.5C 313.201,184.91 312.368,183.91 312,182.5C 316.735,203.249 313.402,222.583 302,240.5C 299.872,243.63 297.372,246.463 294.5,249C 296.574,248.773 298.574,248.939 300.5,249.5C 300.833,250.667 301.167,251.833 301.5,253C 299.748,259.416 298.914,265.916 299,272.5C 301.978,274.382 305.145,275.882 308.5,277C 316.667,282.48 316.501,287.647 308,292.5C 307.995,297.147 308.162,301.814 308.5,306.5C 305.15,306.665 301.817,306.498 298.5,306C 296.671,305.727 295.171,304.893 294,303.5C 292.304,311.282 290.137,318.949 287.5,326.5C 284.893,327.318 282.226,327.818 279.5,328C 277.167,331.667 274.833,335.333 272.5,339C 276.278,341.112 279.778,343.612 283,346.5C 284.112,348.39 284.946,350.39 285.5,352.5C 283.157,358.366 280.157,363.866 276.5,369C 283.186,368.828 288.852,366.161 293.5,361C 296.592,359.136 299.926,357.969 303.5,357.5C 304.994,357.709 306.161,358.376 307,359.5C 312.973,351.191 320.473,344.691 329.5,340C 334.28,338.97 338.613,339.97 342.5,343C 344.607,344.264 345.607,346.097 345.5,348.5C 350.554,348.764 355.221,350.264 359.5,353C 362.097,356.719 365.263,359.886 369,362.5C 370.83,365.815 372.33,369.149 373.5,372.5 Z M 271.5,119.5 C 271.662,117.473 271.495,115.473 271,113.5C 268.667,109.5 266.333,105.5 264,101.5C 258.504,96.3697 253.337,90.8697 248.5,85C 244.518,83.8126 242.851,85.3126 243.5,89.5C 245.01,94.1533 246.177,98.82 247,103.5C 242.559,100.669 237.726,99.8361 232.5,101C 230.327,103.892 229.994,107.059 231.5,110.5C 236.954,112.178 242.287,113.845 247.5,115.5C 241.143,114.529 234.81,113.362 228.5,112C 222.5,111.333 216.5,111.333 210.5,112C 210,112.5 209.5,113 209,113.5C 208.667,117.5 208.333,121.5 208,125.5C 206.786,127.049 205.286,128.215 203.5,129C 190.458,129.877 177.458,129.544 164.5,128C 153.198,122.834 153.865,120.667 166.5,121.5C 166.178,123.722 166.845,125.556 168.5,127C 180.169,127.167 191.836,126.833 203.5,126C 205.994,123.577 205.994,121.244 203.5,119C 191.787,118.188 180.12,118.355 168.5,119.5C 167.548,117.955 167.215,116.288 167.5,114.5C 172.233,114.777 176.9,114.443 181.5,113.5C 182.614,112.277 182.781,110.944 182,109.5C 180.027,106.383 178.193,103.216 176.5,100C 177.607,97.0716 179.274,94.5716 181.5,92.5C 181.739,90.5328 181.406,88.6995 180.5,87C 177.428,86.5441 174.428,86.5441 171.5,87C 172.249,85.2663 172.749,83.433 173,81.5C 173.5,75.1754 173.666,68.8421 173.5,62.5C 178.167,62.5 182.833,62.5 187.5,62.5C 188.428,66.3621 189.928,70.0288 192,73.5C 192.667,75.1667 192.667,76.8333 192,78.5C 188.528,80.4791 185.362,82.8125 182.5,85.5C 183.09,86.7989 184.09,87.6322 185.5,88C 190.202,88.1717 194.868,88.6717 199.5,89.5C 200.179,93.7641 201.179,97.9308 202.5,102C 196.286,102.357 190.786,104.524 186,108.5C 187.52,113.517 191.02,115.35 196.5,114C 199.295,112.207 201.795,110.04 204,107.5C 204.5,108.5 205,109.5 205.5,110.5C 206.5,111.833 207.5,111.833 208.5,110.5C 210.143,104.248 209.143,98.4145 205.5,93C 206.56,90.2633 207.394,87.43 208,84.5C 208.198,76.053 209.198,67.7197 211,59.5C 212.46,62.2098 214.46,62.8765 217,61.5C 218.188,62.5634 218.688,63.8967 218.5,65.5C 219.552,65.6495 220.552,65.4828 221.5,65C 223.142,60.8739 226.142,59.5406 230.5,61C 238.754,62.8759 245.921,66.7092 252,72.5C 252.99,77.8324 253.657,83.1657 254,88.5C 265.217,94.3749 271.717,103.542 273.5,116C 273.613,117.699 272.947,118.866 271.5,119.5 Z M 129.5,86.5 C 131.645,81.4008 133.145,76.0675 134,70.5C 137.35,67.0811 140.684,63.7478 144,60.5C 147.075,62.7707 150.575,63.9373 154.5,64C 153.167,66.6667 153.167,69.3333 154.5,72C 156.716,71.4559 158.883,71.6226 161,72.5C 162.326,72.2451 163.326,71.5784 164,70.5C 164.333,74.8333 164.667,79.1667 165,83.5C 165.273,85.3289 166.107,86.8289 167.5,88C 166.234,88.3095 165.067,88.8095 164,89.5C 163.833,93.5 163.667,97.5 163.5,101.5C 163.537,105.925 164.204,110.091 165.5,114C 161.893,116.301 160.559,115.134 161.5,110.5C 153.2,109.759 144.867,109.259 136.5,109C 137.059,108.275 137.392,107.442 137.5,106.5C 135.701,103.363 134.368,100.03 133.5,96.5C 134.53,92.5766 135.864,88.7432 137.5,85C 137.37,83.9412 136.87,83.1079 136,82.5C 133.722,83.719 131.555,85.0523 129.5,86.5 Z M 115.5,102.5 C 114.223,104.95 112.723,107.283 111,109.5C 110.51,110.793 110.343,112.127 110.5,113.5C 112.857,113.337 115.19,113.503 117.5,114C 103.753,119.037 91.0866,125.87 79.5,134.5C 81.2044,130.948 83.5377,127.781 86.5,125C 91.8333,122.667 97.1667,120.333 102.5,118C 103.667,116.833 104.833,115.667 106,114.5C 108.09,108.647 109.756,102.647 111,96.5C 110.851,99.8397 112.351,101.84 115.5,102.5 Z M 271.5,119.5 C 272.385,123.046 274.385,125.712 277.5,127.5C 273.7,125.857 269.7,125.19 265.5,125.5C 265.5,127.5 265.5,129.5 265.5,131.5C 273.674,131.419 280.007,134.753 284.5,141.5C 273.826,135.932 262.493,133.765 250.5,135C 245.893,135.734 241.559,137.234 237.5,139.5C 236.395,137.031 234.562,135.364 232,134.5C 231.41,130.703 231.91,127.036 233.5,123.5C 234.667,123.167 235.833,122.833 237,122.5C 246.096,124.311 255.263,124.811 264.5,124C 265.791,121.91 265.124,120.576 262.5,120C 265.518,120.663 268.518,120.496 271.5,119.5 Z M 277.5,127.5 C 283.242,128.249 287.242,131.249 289.5,136.5C 285.462,133.488 281.462,130.488 277.5,127.5 Z M 223.5,149.5 C 218.27,156.276 213.77,163.609 210,171.5C 209.023,173.74 208.523,176.073 208.5,178.5C 205.09,178.384 203.756,180.05 204.5,183.5C 207.547,182.855 209.713,183.855 211,186.5C 212.239,192.461 212.573,198.461 212,204.5C 208.52,203.113 206.687,204.446 206.5,208.5C 213.001,228.823 225.001,244.989 242.5,257C 246.571,258.63 250.571,260.13 254.5,261.5C 238.778,258.89 226.611,250.89 218,237.5C 207.128,220.882 200.628,202.715 198.5,183C 196.591,182.552 195.424,183.385 195,185.5C 194.226,189.147 193.559,192.814 193,196.5C 192.79,193.766 191.956,191.266 190.5,189C 186.167,188.333 181.833,188.333 177.5,189C 175.333,189.833 173.833,191.333 173,193.5C 172.891,188.944 171.891,184.611 170,180.5C 168.155,178.65 166.155,178.317 164,179.5C 163.748,182.667 163.582,185.667 163.5,188.5C 160.28,180.392 156.78,172.392 153,164.5C 143.771,150.122 130.605,141.622 113.5,139C 122.172,138.168 130.172,140.168 137.5,145C 143.135,149.633 148.468,154.633 153.5,160C 156.594,160.652 159.594,160.318 162.5,159C 163.337,157.989 163.67,156.822 163.5,155.5C 160.375,155.135 157.375,154.302 154.5,153C 151.158,149.991 148.158,146.657 145.5,143C 155.392,140.01 165.392,139.677 175.5,142C 172.5,142.333 169.5,142.667 166.5,143C 165.167,144.333 165.167,145.667 166.5,147C 174.851,147.706 183.184,147.539 191.5,146.5C 194.229,146.295 196.562,147.128 198.5,149C 206.827,149.5 215.16,149.666 223.5,149.5 Z M 224.5,148.5 C 226.004,144.151 229.004,141.984 233.5,142C 230.621,144.385 227.621,146.552 224.5,148.5 Z M 252.5,146.5 C 257.844,146.334 263.177,146.501 268.5,147C 269.672,147.419 270.672,148.085 271.5,149C 259.362,148.991 248.196,152.157 238,158.5C 238.195,156.255 239.362,154.422 241.5,153C 244.933,150.289 248.6,148.123 252.5,146.5 Z M 123.5,154.5 C 127.232,154.95 130.398,156.617 133,159.5C 144.365,173.547 150.031,189.547 150,207.5C 147.267,219.241 140.933,228.574 131,235.5C 130.326,234.422 129.326,233.755 128,233.5C 116.405,238.299 104.572,238.799 92.5,235C 89.0809,233.414 86.0809,231.248 83.5,228.5C 82.2138,222.516 80.5471,216.683 78.5,211C 82.6336,194.764 88.6336,179.264 96.5,164.5C 106.039,162.324 115.039,158.991 123.5,154.5 Z M 254.5,163.5 C 266.228,162.11 274.394,166.776 279,177.5C 284.35,191.478 285.683,205.811 283,220.5C 279.793,227.709 274.293,231.875 266.5,233C 247.258,235.289 234.758,227.122 229,208.5C 225.21,194.925 225.877,181.592 231,168.5C 231.69,172.19 233.857,173.357 237.5,172C 242.695,168.069 248.362,165.236 254.5,163.5 Z M 67.5,235.5 C 77.8515,244.673 89.1848,252.507 101.5,259C 109.5,259.667 117.5,259.667 125.5,259C 128.058,257.374 130.725,256.374 133.5,256C 129.783,259.527 125.45,262.027 120.5,263.5C 111.528,262.721 102.528,262.221 93.5,262C 84.7485,255.919 76.5818,249.086 69,241.5C 68.4954,239.482 67.9954,237.482 67.5,235.5 Z M 215.5,271.5 C 210.345,269.842 206.178,266.842 203,262.5C 202.711,254.658 201.711,246.991 200,239.5C 204.496,245.156 208.496,251.156 212,257.5C 213.893,262.007 215.059,266.673 215.5,271.5 Z M 72.5,253.5 C 78.7312,267.657 84.8979,281.991 91,296.5C 98.6287,305.797 106.629,314.797 115,323.5C 117.245,326.89 118.245,330.557 118,334.5C 117,332.5 116,330.5 115,328.5C 107.667,320.5 100.333,312.5 93,304.5C 82.3598,289.09 75.5264,272.09 72.5,253.5 Z M 254.5,261.5 C 259.179,261.334 263.845,261.501 268.5,262C 265.594,264.619 262.261,266.453 258.5,267.5C 259.067,264.089 257.734,262.089 254.5,261.5 Z M 163.5,264.5 C 163.477,266.927 162.977,269.26 162,271.5C 161.412,268.861 161.912,266.527 163.5,264.5 Z M 256.5,268.5 C 248.334,271.286 240.501,274.953 233,279.5C 232.333,275.833 232.333,272.167 233,268.5C 240.783,269.716 248.616,269.716 256.5,268.5 Z M 278.5,285.5 C 280.406,281.078 282.572,276.744 285,272.5C 284.975,277.884 282.808,282.217 278.5,285.5 Z M 180.5,286.5 C 191.093,283.003 202.093,281.67 213.5,282.5C 213.863,280.089 212.863,278.589 210.5,278C 212.764,277.764 214.931,277.264 217,276.5C 219.549,283.193 224.383,285.86 231.5,284.5C 231.46,287.425 232.293,290.091 234,292.5C 243.915,299.281 246.082,307.947 240.5,318.5C 238.539,317.152 238.372,315.819 240,314.5C 240.462,309.396 239.128,304.729 236,300.5C 232.246,294.742 227.746,289.575 222.5,285C 220.35,283.41 218.017,282.743 215.5,283C 220.021,287.142 223.188,291.975 225,297.5C 221.733,295.899 218.233,295.066 214.5,295C 204.688,286.523 193.354,283.69 180.5,286.5 Z M 278.5,285.5 C 278.573,287.027 277.906,288.027 276.5,288.5C 276.427,286.973 277.094,285.973 278.5,285.5 Z M 155.5,287.5 C 152.709,289.735 149.709,291.735 146.5,293.5C 148.366,289.993 151.366,287.993 155.5,287.5 Z M 289.5,287.5 C 293.849,286.577 297.183,287.91 299.5,291.5C 299.333,291.833 299.167,292.167 299,292.5C 295.731,288.726 292.731,288.726 290,292.5C 289.506,290.866 289.34,289.199 289.5,287.5 Z M 165.5,291.5 C 153.584,298.456 145.584,308.623 141.5,322C 139.921,327.817 138.421,333.65 137,339.5C 132.999,324.507 135.166,310.507 143.5,297.5C 143.275,299.716 144.108,301.383 146,302.5C 151.083,299.757 155.916,296.59 160.5,293C 162.025,291.991 163.692,291.491 165.5,291.5 Z M 170.5,297.5 C 179.315,291.912 188.982,290.079 199.5,292C 205.456,293.955 209.289,297.789 211,303.5C 206.573,299.537 201.406,297.037 195.5,296C 187.2,295.399 178.866,295.899 170.5,297.5 Z M 272.5,296.5 C 271.456,310.466 267.289,323.466 260,335.5C 259.333,337.833 259.333,340.167 260,342.5C 265.629,343.919 265.795,345.586 260.5,347.5C 260.586,346.504 260.252,345.671 259.5,345C 257.285,343.956 254.952,343.29 252.5,343C 256.545,338.418 259.711,333.251 262,327.5C 265.059,316.89 268.559,306.557 272.5,296.5 Z M 217.5,352.5 C 213.102,351.034 208.769,349.367 204.5,347.5C 205.911,345.983 205.744,344.649 204,343.5C 203.169,335.112 203.503,326.779 205,318.5C 207.101,312.78 211.101,309.113 217,307.5C 220.299,309.576 222.799,312.409 224.5,316C 217.947,316.178 213.781,319.345 212,325.5C 209.543,335.435 211.376,344.435 217.5,352.5 Z M 124.5,354.5 C 123.236,352.73 121.736,351.063 120,349.5C 119.503,347.19 119.337,344.857 119.5,342.5C 120.5,342.5 121.5,342.5 122.5,342.5C 123.038,346.524 123.705,350.524 124.5,354.5 Z M 151.5,360.5 C 153.716,357.963 154.883,354.963 155,351.5C 155.777,353.215 157.11,354.215 159,354.5C 167.545,351.27 176.379,349.27 185.5,348.5C 185.859,350.766 185.192,352.599 183.5,354C 172.558,354.903 161.892,357.07 151.5,360.5 Z M 258.5,349.5 C 257.419,351.764 256.085,353.931 254.5,356C 253.167,356.667 251.833,356.667 250.5,356C 253.331,353.999 255.997,351.833 258.5,349.5 Z M 234.5,362.5 C 231.528,360.678 228.528,358.844 225.5,357C 227.5,356.667 229.5,356.333 231.5,356C 232.126,355.25 232.626,354.416 233,353.5C 233.363,356.544 233.863,359.544 234.5,362.5 Z M 183.5,358.5 C 225.697,357.857 248.363,378.69 251.5,421C 246.455,445.446 233.122,463.78 211.5,476C 185.219,485.383 161.219,481.383 139.5,464C 120.393,445.685 114.56,423.851 122,398.5C 128.5,382.667 139.667,371.5 155.5,365C 164.699,361.642 174.033,359.475 183.5,358.5 Z M 127.5,360.5 C 132.111,364.151 137.444,365.484 143.5,364.5C 139.03,367.241 134.696,370.241 130.5,373.5C 130.881,368.82 129.881,364.486 127.5,360.5 Z M 300.5,360.5 C 301.552,360.351 302.552,360.517 303.5,361C 302.333,362.833 301.167,364.667 300,366.5C 298.401,368.036 296.567,368.536 294.5,368C 296.334,365.337 298.334,362.837 300.5,360.5 Z M 234.5,362.5 C 239.105,364.471 243.438,366.971 247.5,370C 244.112,368.724 241.279,369.557 239,372.5C 238.836,368.51 237.336,365.177 234.5,362.5 Z M 325.5,364.5 C 326.525,364.897 326.692,365.563 326,366.5C 324.333,368.167 322.667,369.833 321,371.5C 320.5,371 320,370.5 319.5,370C 321.396,367.932 323.396,366.099 325.5,364.5 Z M 360.5,364.5 C 362.196,364.685 363.529,365.519 364.5,367C 362.188,369.375 359.521,370.708 356.5,371C 355.833,370.333 355.167,369.667 354.5,369C 356.389,367.236 358.389,365.736 360.5,364.5 Z M 99.5,367.5 C 101.355,367.272 102.188,367.939 102,369.5C 101.005,368.934 100.172,368.267 99.5,367.5 Z M 263.5,383.5 C 264.795,379.577 266.628,375.91 269,372.5C 270.974,369.882 272.807,370.048 274.5,373C 270.305,376.03 266.639,379.53 263.5,383.5 Z M 101.5,374.5 C 106.891,373.755 112.224,372.755 117.5,371.5C 117.33,372.822 117.663,373.989 118.5,375C 115.94,377.971 113.273,380.804 110.5,383.5C 107.146,380.812 104.146,377.812 101.5,374.5 Z M 350.5,372.5 C 351.973,373.072 353.307,373.905 354.5,375C 352.586,376.827 350.586,376.827 348.5,375C 349.381,374.292 350.047,373.458 350.5,372.5 Z M 250.5,373.5 C 252.337,373.639 252.67,374.306 251.5,375.5C 250.702,375.043 250.369,374.376 250.5,373.5 Z M 89.5,376.5 C 89.8425,374.775 90.8425,374.275 92.5,375C 91.7562,376.039 90.7562,376.539 89.5,376.5 Z M 85.5,376.5 C 86.8333,376.5 88.1667,376.5 89.5,376.5C 88.1667,379.167 86.8333,379.167 85.5,376.5 Z M 343.5,378.5 C 345.14,379.32 346.807,380.153 348.5,381C 347.975,381.692 347.308,382.192 346.5,382.5C 344.885,381.846 343.218,381.346 341.5,381C 342.381,380.292 343.047,379.458 343.5,378.5 Z M 3.5,379.5 C 7.21714,380.527 10.5505,382.361 13.5,385C 30.2722,401.094 44.7722,418.927 57,438.5C 66.2042,454.654 68.7042,471.654 64.5,489.5C 60.5544,488.194 56.8878,486.361 53.5,484C 26.1634,457.502 9.1634,425.336 2.5,387.5C 2.61438,384.783 2.94772,382.116 3.5,379.5 Z M 81.5,381.5 C 82.2891,381.783 82.9558,382.283 83.5,383C 82.184,383.528 81.5173,383.028 81.5,381.5 Z M 283.5,381.5 C 285.225,381.843 285.725,382.843 285,384.5C 278.276,393.049 271.776,401.716 265.5,410.5C 265.167,410 264.833,409.5 264.5,409C 269.506,398.789 275.839,389.622 283.5,381.5 Z M 315.5,437.5 C 315.898,432.807 317.398,428.474 320,424.5C 325.43,415.306 331.597,406.639 338.5,398.5C 340.113,397.573 341.779,396.739 343.5,396C 347.736,389.93 353.069,385.097 359.5,381.5C 361.97,382.607 363.636,384.441 364.5,387C 362.721,392.726 361.388,398.559 360.5,404.5C 360.709,405.994 361.376,407.161 362.5,408C 352.754,438.335 335.254,463.168 310,482.5C 306.779,472.268 306.779,461.934 310,451.5C 310.333,456.5 310.667,461.5 311,466.5C 313.053,470.292 316.219,471.458 320.5,470C 340.208,450.773 353.375,427.607 360,400.5C 360.667,396.167 360.667,391.833 360,387.5C 354.881,386.049 350.881,387.715 348,392.5C 336.165,406.86 325.332,421.86 315.5,437.5 Z M 337.5,384.5 C 339.14,385.32 340.807,386.153 342.5,387C 340.627,390.635 338.294,391.135 335.5,388.5C 336.18,387.14 336.847,385.807 337.5,384.5 Z M 314.5,403.5 C 314.262,405.404 313.262,406.738 311.5,407.5C 311.738,405.596 312.738,404.262 314.5,403.5 Z M 311.5,407.5 C 311.573,409.027 310.906,410.027 309.5,410.5C 309.427,408.973 310.094,407.973 311.5,407.5 Z M 309.5,410.5 C 305.421,418.326 301.588,426.326 298,434.5C 299.416,425.335 303.25,417.335 309.5,410.5 Z M 29.5,412.5 C 38.7039,422.259 45.8705,433.259 51,445.5C 49.4157,444.139 47.5824,443.472 45.5,443.5C 42.4266,435.909 38.2599,428.909 33,422.5C 31.9245,419.106 30.7578,415.772 29.5,412.5 Z M 189.5,413.5 C 193.599,412.214 196.599,413.714 198.5,418C 196.544,423.985 192.544,426.652 186.5,426C 188.67,424.414 191.004,423.08 193.5,422C 195.518,417.596 194.185,414.763 189.5,413.5 Z M 318.5,448.5 C 322.61,435.227 329.444,423.56 339,413.5C 339.667,414.833 339.667,416.167 339,417.5C 331.448,423.944 326.448,431.944 324,441.5C 322.147,443.903 320.314,446.236 318.5,448.5 Z M 348.5,414.5 C 345.836,427.178 340.336,438.844 332,449.5C 331.333,447.167 331.333,444.833 332,442.5C 334.237,440.353 336.237,438.02 338,435.5C 341.55,428.399 345.05,421.399 348.5,414.5 Z M 176.5,417.5 C 177.224,419.218 177.891,421.052 178.5,423C 176.681,423.783 175.348,423.283 174.5,421.5C 175.18,420.14 175.847,418.807 176.5,417.5 Z M 78.5,421.5 C 84.1413,431.467 88.1413,442.134 90.5,453.5C 85.9801,443.109 81.9801,432.442 78.5,421.5 Z M 20.5,424.5 C 23.4802,427.144 26.4802,429.811 29.5,432.5C 32.1597,438.49 35.3264,444.156 39,449.5C 40.415,453.411 41.0817,457.411 41,461.5C 32.6203,450.078 25.7869,437.745 20.5,424.5 Z M 308.5,433.5 C 305.076,433.302 304.242,431.968 306,429.5C 307.481,430.471 308.315,431.804 308.5,433.5 Z M 302.5,435.5 C 304.803,437.325 307.136,439.158 309.5,441C 308.809,442.067 308.309,443.234 308,444.5C 305.523,443.015 303.356,441.181 301.5,439C 301.989,437.862 302.322,436.695 302.5,435.5 Z M 299.5,445.5 C 301.465,447.488 303.798,448.988 306.5,450C 305.072,453.45 303.738,456.95 302.5,460.5C 300.336,459.586 298.336,458.419 296.5,457C 297.34,453.126 298.34,449.292 299.5,445.5 Z M 296.5,463.5 C 298.759,465.116 300.759,466.949 302.5,469C 301.782,472.461 301.282,475.961 301,479.5C 300,478.833 299,478.167 298,477.5C 296.878,472.898 296.378,468.232 296.5,463.5 Z M 73.5,479.5 C 74.7733,480.077 74.7733,480.743 73.5,481.5C 72.537,481.03 72.537,480.363 73.5,479.5 Z"/></g>
<g><path style="opacity:0.809" fill="#000000" d="M 181.5,92.5 C 184.445,91.5325 187.445,91.3658 190.5,92C 191.406,93.6995 191.739,95.5328 191.5,97.5C 188.15,97.665 184.817,97.4983 181.5,97C 180.587,95.5861 180.587,94.0861 181.5,92.5 Z"/></g>
<g><path style="opacity:0.716" fill="#000000" d="M 204.5,189.5 C 206.167,189.5 207.833,189.5 209.5,189.5C 209.5,191.167 209.5,192.833 209.5,194.5C 207.5,194.5 205.5,194.5 203.5,194.5C 203.366,192.708 203.699,191.042 204.5,189.5 Z"/></g>
<g><path style="opacity:0.952" fill="#000000" d="M 164.5,398.5 C 160.179,392.855 157.179,386.522 155.5,379.5C 157.216,374.947 160.216,371.447 164.5,369C 167.957,367.257 171.623,366.257 175.5,366C 183.167,365.333 190.833,365.333 198.5,366C 208.885,368.032 213.385,374.199 212,384.5C 211.097,388.805 209.263,392.639 206.5,396C 201.744,398.263 197.411,397.597 193.5,394C 187.5,393.333 181.5,393.333 175.5,394C 172.71,394.561 170.377,395.894 168.5,398C 167.207,398.49 165.873,398.657 164.5,398.5 Z"/></g>
<g><path style="opacity:0.882" fill="#000000" d="M 9.5,389.5 C 16.559,390.96 22.3924,394.627 27,400.5C 43.9623,420.087 55.9623,442.42 63,467.5C 63.2302,478.61 58.7302,481.11 49.5,475C 33.5276,458.915 21.6942,440.082 14,418.5C 11.7278,410.518 9.56111,402.518 7.5,394.5C 8.17444,392.805 8.8411,391.138 9.5,389.5 Z M 29.5,412.5 C 30.7578,415.772 31.9245,419.106 33,422.5C 38.2599,428.909 42.4266,435.909 45.5,443.5C 47.5824,443.472 49.4157,444.139 51,445.5C 45.8705,433.259 38.7039,422.259 29.5,412.5 Z M 20.5,424.5 C 25.7869,437.745 32.6203,450.078 41,461.5C 41.0817,457.411 40.415,453.411 39,449.5C 35.3264,444.156 32.1597,438.49 29.5,432.5C 26.4802,429.811 23.4802,427.144 20.5,424.5 Z"/></g>
<g><path style="opacity:0.953" fill="#000000" d="M 219.5,390.5 C 226.096,390.382 231.263,393.048 235,398.5C 243.662,411.871 243.662,425.205 235,438.5C 227.903,444.251 220.403,444.918 212.5,440.5C 211.363,438.393 210.363,436.227 209.5,434C 215.404,424.543 215.904,414.71 211,404.5C 206.341,401.022 206.508,397.522 211.5,394C 214.158,392.522 216.825,391.355 219.5,390.5 Z"/></g>
<g><path style="opacity:0.956" fill="#000000" d="M 164.5,398.5 C 162.027,403.447 159.527,408.447 157,413.5C 154.709,421.649 156.375,428.982 162,435.5C 162.508,441.7 159.675,445.867 153.5,448C 142.815,451.484 134.982,448.318 130,438.5C 126.706,427.4 125.706,416.066 127,404.5C 131.698,391.806 140.531,387.973 153.5,393C 157.22,394.86 160.886,396.693 164.5,398.5 Z"/></g>
<g><path style="opacity:0.939" fill="#000000" d="M 201.5,439.5 C 188.824,443.061 176.824,441.561 165.5,435C 157.218,425.89 156.385,416.057 163,405.5C 168.127,400.012 174.461,397.679 182,398.5C 193.264,397.689 202.264,401.689 209,410.5C 213.269,420.921 211.435,430.087 203.5,438C 210.605,441.276 214.939,446.776 216.5,454.5C 215.786,456.811 214.786,458.978 213.5,461C 195.511,469.042 177.345,469.542 159,462.5C 158.333,459.167 158.333,455.833 159,452.5C 161.02,448.347 163.52,444.681 166.5,441.5C 169.022,441.128 171.022,441.961 172.5,444C 182.79,445.598 192.456,444.098 201.5,439.5 Z M 189.5,413.5 C 194.185,414.763 195.518,417.596 193.5,422C 191.004,423.08 188.67,424.414 186.5,426C 192.544,426.652 196.544,423.985 198.5,418C 196.599,413.714 193.599,412.214 189.5,413.5 Z M 176.5,417.5 C 175.847,418.807 175.18,420.14 174.5,421.5C 175.348,423.283 176.681,423.783 178.5,423C 177.891,421.052 177.224,419.218 176.5,417.5 Z"/></g>
</svg>
