<?xml version="1.0" encoding="UTF-8" standalone="no"?><!DOCTYPE svg PUBLIC "-//W3C//DTD SVG 1.1//EN" "http://www.w3.org/Graphics/SVG/1.1/DTD/svg11.dtd"><svg width="100%" height="100%" viewBox="0 0 500 500" version="1.1" xmlns="http://www.w3.org/2000/svg" xmlns:xlink="http://www.w3.org/1999/xlink" xml:space="preserve" xmlns:serif="http://www.serif.com/" style="fill-rule:evenodd;clip-rule:evenodd;stroke-linejoin:round;stroke-miterlimit:2;"><g><path d="M378.218,388.648c25.875,-24.876 44.534,-55.703 54.833,-90.065c39.098,-134.172 -60.204,-265.889 -196.027,-279.82c128.035,14.141 225.3,136.193 192.033,266.113c-28.218,106.704 -143.49,173.947 -246.706,129.172c-65.686,-28.444 -115.061,-110.835 -82.732,-180.872c2.768,-5.758 6.773,-8.947 6.221,-0.645c-7.295,54.19 8.799,105.455 55.05,138.546c84.042,59.198 198.846,8.423 225.228,-87.747c29.193,-108.257 -56.822,-209.605 -165.668,-213.64c-126.334,-3.422 -217.127,115.167 -195.857,236.624c16.085,87.4 81.941,152.436 166.383,171.047c-74.618,-18.393 -135.064,-73.154 -158.074,-146.816c-17.012,-56.331 -10.014,-117.083 20.921,-167.318c64.289,-102.492 212.087,-124.509 294.043,-30.223c64.223,75.191 50.058,195.834 -40.829,242.727c-79.25,40.33 -183.014,-3.624 -193.302,-95.88c-8.163,-78.292 59.492,-137.594 134.853,-121.078c6.112,1.337 34.829,12.74 17.507,-2.085c-23.684,-19.948 -59.005,-23.306 -88.109,-16.3c-91.708,23.378 -124.371,131.998 -80.558,211.409c58.291,104.312 197.505,113.653 280.79,36.851Zm-256.484,-244.04c68.276,-52.119 172.925,-37.874 210.34,44.066c26.478,60.439 -2.915,140.051 -73.468,148.95c-41.699,4.759 -93.029,-28.057 -80.62,-75.087c1.74,-6.193 14.987,-30.167 24.723,-22.049c1.933,1.908 1.305,5.162 0.967,7.562c-6.555,43.889 42.423,63.265 72.083,29.756c30.771,-37.358 4.212,-87.932 -37.527,-101.517c-61.639,-17.83 -114.104,35.143 -113.831,95.252c2.988,81.295 84.96,127.254 159.169,105.108c89.51,-29.869 120.796,-132.561 77.97,-213.012c-65.576,-113.951 -221.371,-109.248 -295.266,-9.671c-77.131,106.107 -29.054,253.068 87.376,306.073c60.277,26.72 128.463,25.343 188.136,-2.392c123.349,-58.699 169.348,-207.971 111.181,-329.282c68.588,140.599 -6.032,316.091 -163.454,348.666c-129.429,25.23 -257.941,-65.737 -263.229,-200.449c-3.289,-119.049 99.728,-219.922 220.282,-198.09c102.975,19.755 170.234,130.573 122.472,228.377c-40.596,81.844 -153.162,110.054 -218.601,40.081c-50.906,-55.269 -38.071,-149.836 36.488,-176.266c50.348,-16.042 107.074,12.796 112.164,67.96c2.142,31.745 -12.958,49.067 -33.759,69.377c-9.768,10.042 14.818,3.245 17.443,2.15c58.433,-26.011 55.84,-105.31 18.659,-147.589c-27.791,-31.221 -69.772,-44.96 -110.859,-39.822c-90.92,12.233 -142.028,106.679 -119.626,192.428c-17.696,-62.081 1.724,-128.712 50.787,-170.58Z"/><path d="M304.282,429.589c-10.509,4.709 -21.344,8.402 -32.544,11.105c-111.916,26.04 -217.245,-55.635 -232.843,-166.758c4.662,40.119 20.009,81.167 45.885,112.288c80.876,97.341 238.969,92.049 307.776,-16.655c53.692,-85.178 25.932,-203.079 -67.188,-247.069c-83.789,-39.292 -188.685,2.836 -211.587,95.143c-17.868,73.734 25.294,142.345 95.952,164.123c0.277,0.094 13.992,3.482 8.578,4.837c34.489,3.863 69.16,-6.362 95.464,-29.081c2.331,-2.047 16.119,-21.703 4.926,-13.057c-20.741,15.875 -43.514,27.659 -69.825,30.559c-90.28,9.296 -154.128,-81.106 -127.818,-164.997c25.457,-80.278 116.652,-117.625 193.882,-87.054c118.78,48.347 133.713,215.17 31.291,286.614c-3.28,2.29 -7.216,5.21 -11.092,6.43c-3.049,1.057 0.935,-2.351 -1.782,-1.145c-9.845,4.662 -18.925,10.455 -29.075,14.717Zm-89.827,-290.9c-80.34,29.436 -116.292,137.503 -45.878,197.747c52.024,43.798 138.273,26.317 156.31,-43.542c10.299,-42.802 -13.138,-84.805 -55.04,-97.769c-6.701,-2.034 -31.202,-4.069 -13.111,-10.917c9.832,-3.441 21.676,-2.305 31.569,0.09c41.19,10.428 67.52,49.166 69.899,90.519c-2.142,-5.333 -5.692,17.698 -5.889,18.464c1.566,-17.651 -1.267,-46.665 -16.309,-59.322c-4.553,-3.808 0.244,17.949 0.44,19.873c7.542,64.756 -44.896,119.87 -111.99,114.226c-55.642,-5.685 -96.907,-50.581 -102.998,-105.356c-10.645,-114.615 125.44,-183.882 213.701,-118.684c2.026,1.503 3.51,3.456 5.292,5.238c13.518,13.321 26.446,25.357 36.908,41.579c-36.095,-51.86 -103.311,-76.148 -162.904,-52.146Z" style="fill:#221e1f;fill-opacity:0.8;"/><path d="M226.902,251.692c1.451,32.66 37.145,46.549 65.386,42.616c50.039,-7.839 80.262,-55.139 85.543,-102.545c7.29,-88.799 -62.96,-165.292 -147.288,-183.066c-0.321,-0.042 0.581,0.178 0.601,0.187c74.705,19.922 136.686,75.437 145.573,155.091c4.169,52.357 -19.404,108.714 -72.747,125.486c-15.871,4.268 -31.574,4.246 -46.743,-2.509c-18.465,-9.448 -31.252,-30.043 -14.991,-47.765c10.454,-10.49 15.407,-21.354 10.262,-35.997c-11.578,-29.293 -47.979,-31.904 -72.744,-19.036c-31.397,17.598 -46.779,56.594 -39.196,91.341c0.031,0.172 0.775,3.353 0.721,1.711c-0.264,-12 -1.148,-22.774 1.417,-34.829c7.747,-34.006 39.207,-68.186 77.157,-56.903c11.506,4.187 22.432,13.616 21.078,26.973c-1.617,8.998 -8.967,11.575 -14.898,17.371c-11.679,13.078 -11.261,30.2 -3.278,45.113c26.468,43.535 91.689,34.613 123.74,1.618c0.062,-0.07 -1.563,1.204 -2.143,1.772c-29.669,24.886 -77.685,37.04 -109.038,7.966c-9.409,-9.253 -18.385,-26.783 -11.241,-39.907c3.434,-6.312 2.744,3.23 2.829,5.312Z" style="fill:#221e1f;fill-opacity:0.55;"/></g></svg>